<?xml version="1.0" standalone="no"?>
<!DOCTYPE svg PUBLIC "-//W3C//DTD SVG 20010904//EN"
 "http://www.w3.org/TR/2001/REC-SVG-20010904/DTD/svg10.dtd">
<svg version="1.0" xmlns="http://www.w3.org/2000/svg"
 width="512.000000pt" height="512.000000pt" viewBox="0 0 512.000000 512.000000"
 preserveAspectRatio="xMidYMid meet">

<g transform="translate(0.000000,512.000000) scale(0.100000,-0.100000)"
fill="#000000" stroke="none">
<path d="M1515 5034 c-170 -38 -295 -114 -446 -271 -274 -286 -419 -649 -445
-1118 -20 -378 95 -883 287 -1255 l44 -85 5 -569 5 -569 455 -313 455 -314
493 0 493 0 -32 45 c-19 27 -43 48 -58 51 -267 61 -518 157 -754 291 -153 87
-197 126 -197 177 0 28 7 45 29 67 45 45 74 39 206 -40 567 -342 1169 -436
1685 -265 198 66 418 199 527 319 314 345 305 990 -22 1738 -38 86 -54 111
-77 123 -39 20 -93 11 -112 -19 -31 -48 -28 -63 30 -194 168 -379 254 -783
226 -1061 -22 -224 -78 -360 -197 -477 -117 -117 -219 -156 -420 -162 -116 -4
-158 -1 -241 16 -743 153 -1629 952 -2086 1882 -354 719 -393 1371 -100 1668
303 307 913 197 1557 -280 135 -101 158 -107 206 -60 33 33 38 74 13 109 -8
12 -50 49 -94 82 -297 226 -651 402 -947 471 -121 28 -388 35 -488 13z"/>
<path d="M3740 4308 c-109 -43 -220 -188 -220 -288 0 -23 -5 -31 -22 -34 -13
-3 -304 -37 -648 -76 -344 -39 -636 -73 -648 -76 -70 -15 -96 -105 -46 -159
25 -27 28 -28 107 -22 45 3 339 35 652 71 314 37 575 65 582 64 6 -2 -267
-230 -607 -507 -421 -343 -622 -513 -629 -531 -13 -40 -2 -77 32 -106 25 -21
38 -25 65 -20 19 3 42 11 51 19 120 103 1214 987 1217 984 3 -2 -88 -279 -201
-614 -119 -355 -205 -626 -205 -647 0 -52 36 -86 90 -86 29 0 47 6 63 23 15
15 88 220 235 657 l213 635 67 1 c314 7 470 386 257 623 -19 21 -63 53 -97 72
-57 30 -72 33 -158 36 -79 3 -105 -1 -150 -19z"/>
<path d="M1240 170 l0 -170 1250 0 1250 0 0 170 0 170 -1250 0 -1250 0 0 -170z"/>
</g>
</svg>
